<?xml version="1.0" encoding="utf-8"?>
<!-- Generator: Adobe Illustrator 18.1.1, SVG Export Plug-In . SVG Version: 6.00 Build 0)  -->
<svg version="1.1" id="Layer_1" xmlns="http://www.w3.org/2000/svg" xmlns:xlink="http://www.w3.org/1999/xlink" x="0px" y="0px"
	 viewBox="0 0 60.6 60.7" enable-background="new 0 0 60.6 60.7" xml:space="preserve">
<g>
	<g>
		<path fill="#FFFFFF" d="M54.8,47.6C45.4,61.3,26.7,64.8,13,55.4S-4.1,27.3,5.3,13.6L54.8,47.6z"/>
	</g>
	<g>
		<path fill="none" stroke="#FFFFFF" stroke-miterlimit="10" d="M5.3,13.5C14.7-0.2,33.4-3.6,47.1,5.8s17.1,28.1,7.7,41.8L5.3,13.5z
			"/>
	</g>
	<polygon fill="#FFFFFF" points="42.3,16.5 39.3,15.9 38.3,13.8 28.1,28.7 32,31.4 	"/>
	<circle fill="none" stroke="#FFFFFF" stroke-miterlimit="10" cx="41.6" cy="13.1" r="3.4"/>
	<circle fill="none" stroke="#FFFFFF" stroke-miterlimit="10" cx="41.6" cy="13.1" r="1.4"/>
	<path fill="#FFFFFF" stroke="#FFFFFF" stroke-miterlimit="10" d="M55.7,49.8L3.8,14c-0.5-0.3-0.6-1-0.3-1.4l0.2-0.3
		c0.3-0.5,1-0.6,1.4-0.3l51.9,35.7c0.5,0.3,0.6,1,0.3,1.4l-0.2,0.3C56.8,50,56.2,50.1,55.7,49.8z"/>
	<line fill="none" stroke="#FFFFFF" stroke-miterlimit="10" x1="13.8" y1="18.8" x2="38.2" y2="15.8"/>
	<line fill="none" stroke="#FFFFFF" stroke-miterlimit="10" x1="45" y1="40.3" x2="40.6" y2="17.2"/>
</g>
</svg>
